<svg xmlns="http://www.w3.org/2000/svg" viewBox="0 0 77.53 134.27"><defs><style>.cls-1{fill:#bde270;}.cls-2{fill:#6aac63;}.cls-3,.cls-6{fill:none;}.cls-3,.cls-4,.cls-6,.cls-7{stroke:#000;}.cls-3,.cls-7{stroke-linejoin:round;stroke-width:4px;}.cls-4{fill:#fcec5b;}.cls-4,.cls-6{stroke-miterlimit:10;stroke-width:3px;}.cls-5{fill:#f7cc5a;}.cls-7{fill:#fff;}.cls-8{fill:#ddd;}</style></defs><title>Logo</title><g id="Layer_2" data-name="Layer 2"><g id="Layer_1-2" data-name="Layer 1"><path class="cls-1" d="M75.53,81.6c0,12.82-15.09,32.71-26.21,45.62a14.91,14.91,0,0,1-22.87-.33C16,114,2,94.31,2,81.6a36.77,36.77,0,1,1,73.53,0Z"/><path class="cls-2" d="M65.78,57.84c.71,1,13.42,19.47-25.31,74.43,0,0,25.29-7.56,34-50.67C76.29,72.72,71.21,64.25,65.78,57.84Z"/><path class="cls-3" d="M75.53,81.6c0,12-12.74,30.68-23.22,44.07a17.2,17.2,0,0,1-27.09,0C14.74,112.28,2,93.55,2,81.6a36.77,36.77,0,1,1,73.53,0Z"/><circle class="cls-4" cx="38.41" cy="81.16" r="19.88"/><path class="cls-5" d="M59,81A19.88,19.88,0,0,0,44.45,61.81c.78.69,20.47,18.32-1.87,38.69A19.86,19.86,0,0,0,59,81Z"/><circle class="cls-6" cx="38.41" cy="81.16" r="19.88"/><path class="cls-7" d="M63.73,16.62c-2.34-2.47-5.37-2.73-8.41-2.82a18.69,18.69,0,0,0-4-6.44,16.67,16.67,0,0,0-24.66.18,19,19,0,0,0-4.4,8.14c-3.24,0-6.49.29-9,2.95a13.93,13.93,0,0,0,.12,18.8,12,12,0,0,0,9.11,3.81l.13,7.22,32-.22-.13-8.89a12,12,0,0,0,9.33-3.94A13.92,13.92,0,0,0,63.73,16.62Z"/><path class="cls-8" d="M63.69,16.63c-2.34-2.46-5.37-2.72-8.41-2.81a18.69,18.69,0,0,0-4-6.44C50,6,48.61,4,47.1,3.12c0,0,5.95,11.43,3.86,15.25,0,0,6.74,7.16.21,12.82l-.11,17.28,3.48,0-.07-9.09a11.94,11.94,0,0,0,9.33-3.93A13.92,13.92,0,0,0,63.69,16.63Z"/><path class="cls-3" d="M63.63,16.39c-2.36-2.44-5.4-2.67-8.44-2.73a18.67,18.67,0,0,0-4-6.41,16.68,16.68,0,0,0-24.66.41,18.82,18.82,0,0,0-4.33,8.18c-3.24,0-6.48.35-8.92,3a13.93,13.93,0,0,0,.27,18.8,12,12,0,0,0,9.14,3.73l-.05,7.09,32-.53,0-8.76a12,12,0,0,0,9.31-4A13.93,13.93,0,0,0,63.63,16.39Z"/></g></g></svg>