<svg xmlns="http://www.w3.org/2000/svg" viewBox="0 0 123.37 191.58"><defs><style>.cls-1{fill:#bde270;}.cls-2{fill:#6aac63;}.cls-3,.cls-6{fill:none;}.cls-3,.cls-4,.cls-6,.cls-9{stroke:#000;}.cls-3,.cls-9{stroke-linejoin:round;stroke-width:4px;}.cls-4{fill:#fcec5b;}.cls-4,.cls-6{stroke-miterlimit:10;stroke-width:3px;}.cls-5{fill:#f7cc5a;}.cls-7{font-size:43px;font-family:DINCondensed-Bold, DIN Condensed;font-weight:700;letter-spacing:-0.04em;}.cls-8{letter-spacing:0em;}.cls-9{fill:#fff;}.cls-10{fill:#ddd;}</style></defs><title>Logo Vertical</title><g id="Layer_2" data-name="Layer 2"><g id="Layer_1-2" data-name="Layer 1"><path class="cls-1" d="M95,81.6c0,12.82-15.09,32.71-26.21,45.62a14.91,14.91,0,0,1-22.87-.33C35.46,114,21.47,94.31,21.47,81.6A36.77,36.77,0,1,1,95,81.6Z"/><path class="cls-2" d="M85.25,57.84c.71,1,13.42,19.47-25.32,74.43,0,0,25.3-7.56,34-50.67C95.76,72.72,90.68,64.25,85.25,57.84Z"/><path class="cls-3" d="M95,81.6c0,12-12.74,30.68-23.22,44.07a17.2,17.2,0,0,1-27.09,0C34.21,112.28,21.47,93.55,21.47,81.6A36.77,36.77,0,1,1,95,81.6Z"/><circle class="cls-4" cx="57.88" cy="81.16" r="19.88"/><path class="cls-5" d="M78.46,81A19.87,19.87,0,0,0,63.91,61.81c.79.69,20.48,18.32-1.86,38.69A19.86,19.86,0,0,0,78.46,81Z"/><circle class="cls-6" cx="57.88" cy="81.16" r="19.88"/><text class="cls-7" transform="translate(0 178.16)">A<tspan class="cls-8" x="15.91" y="0">VOCADO</tspan></text><path class="cls-9" d="M83.2,16.62c-2.34-2.47-5.37-2.73-8.41-2.82a18.84,18.84,0,0,0-4-6.44,16.67,16.67,0,0,0-24.66.18,18.88,18.88,0,0,0-4.4,8.14c-3.24,0-6.49.29-9,2.95a13.93,13.93,0,0,0,.12,18.8A12,12,0,0,0,42,41.24l.13,7.22,32-.22L74,39.35a12,12,0,0,0,9.33-3.94A13.92,13.92,0,0,0,83.2,16.62Z"/><path class="cls-10" d="M83.16,16.63c-2.34-2.46-5.37-2.72-8.41-2.81a18.69,18.69,0,0,0-4-6.44C69.5,6,68.08,4,66.57,3.12c0,0,6,11.43,3.86,15.25,0,0,6.74,7.16.2,12.82l-.1,17.28,3.48,0-.07-9.09a11.94,11.94,0,0,0,9.33-3.93A13.93,13.93,0,0,0,83.16,16.63Z"/><path class="cls-3" d="M83.1,16.39c-2.36-2.44-5.4-2.67-8.45-2.73a18.49,18.49,0,0,0-4-6.41A16.68,16.68,0,0,0,46,7.66a18.82,18.82,0,0,0-4.33,8.18c-3.25,0-6.48.35-8.92,3A13.93,13.93,0,0,0,33,37.67a12,12,0,0,0,9.14,3.73l-.05,7.09L74,48l0-8.76a12,12,0,0,0,9.31-4A14,14,0,0,0,83.1,16.39Z"/></g></g></svg>